<?xml version="1.0" encoding="UTF-8" standalone="no"?>
<!DOCTYPE svg PUBLIC "-//W3C//DTD SVG 1.1//EN" "http://www.w3.org/Graphics/SVG/1.1/DTD/svg11.dtd">
<svg width="100%" height="100%" viewBox="0 0 800 300" version="1.1" xmlns="http://www.w3.org/2000/svg" xmlns:xlink="http://www.w3.org/1999/xlink" xml:space="preserve" xmlns:serif="http://www.serif.com/" style="fill-rule:evenodd;clip-rule:evenodd;stroke-linejoin:round;stroke-miterlimit:2;">
    <g transform="matrix(1,0,0,1,-2844,-999)">
        <g id="Logo" transform="matrix(0.923656,0,0,0.447795,216.493,551.486)">
            <rect x="2844.68" y="999.373" width="866.123" height="669.95" style="fill:none;"/>
            <g id="Logo1" serif:id="Logo" transform="matrix(2.03595,0,0,4.19952,2059.09,-8118.24)">
                <g transform="matrix(1,0,0,1,155.624,52.5098)">
                    <g transform="matrix(55,0,0,55,323.431,2261.38)">
                        <path d="M0.087,-0.368L0.483,-0.612L0.529,-0.539L0.172,-0.321L0.529,-0.103L0.478,-0.031L0.087,-0.275L0.087,-0.368Z" style="fill:rgb(184,184,184);fill-rule:nonzero;"/>
                    </g>
                    <g transform="matrix(55,0,0,55,323.431,2261.38)">
                        <path d="M0.202,-0.321L0.538,-0.116C0.541,-0.114 0.544,-0.11 0.545,-0.106C0.546,-0.101 0.545,-0.097 0.542,-0.093L0.491,-0.022C0.487,-0.015 0.477,-0.013 0.47,-0.017L0.079,-0.262C0.074,-0.265 0.071,-0.27 0.071,-0.275L0.071,-0.368C0.071,-0.373 0.074,-0.378 0.079,-0.381L0.474,-0.626C0.482,-0.63 0.491,-0.628 0.496,-0.621L0.543,-0.548C0.545,-0.544 0.546,-0.54 0.545,-0.535C0.544,-0.531 0.541,-0.528 0.538,-0.525L0.202,-0.321ZM0.507,-0.544L0.478,-0.59L0.103,-0.359L0.103,-0.284L0.474,-0.052L0.506,-0.098L0.163,-0.307C0.159,-0.31 0.156,-0.315 0.156,-0.321C0.156,-0.327 0.159,-0.332 0.163,-0.335L0.507,-0.544Z" style="fill:rgb(184,184,184);"/>
                    </g>
                    <g transform="matrix(55,0,0,55,368.277,2261.38)">
                        <path d="M0.367,-0.719C0.412,-0.719 0.451,-0.714 0.483,-0.702C0.515,-0.691 0.546,-0.673 0.575,-0.649L0.521,-0.585C0.479,-0.619 0.43,-0.637 0.373,-0.637C0.334,-0.637 0.298,-0.628 0.267,-0.609C0.236,-0.59 0.212,-0.559 0.193,-0.517C0.175,-0.475 0.166,-0.421 0.166,-0.354C0.166,-0.288 0.175,-0.234 0.192,-0.193C0.21,-0.151 0.234,-0.12 0.265,-0.101C0.296,-0.082 0.332,-0.072 0.372,-0.072C0.408,-0.072 0.438,-0.078 0.463,-0.088C0.488,-0.099 0.512,-0.114 0.535,-0.132L0.586,-0.067C0.561,-0.043 0.531,-0.024 0.495,-0.009C0.459,0.006 0.418,0.013 0.37,0.013C0.311,0.013 0.258,-0.001 0.211,-0.03C0.164,-0.058 0.127,-0.1 0.1,-0.155C0.073,-0.21 0.06,-0.277 0.06,-0.354C0.06,-0.431 0.074,-0.497 0.101,-0.552C0.128,-0.607 0.165,-0.649 0.212,-0.677C0.259,-0.705 0.31,-0.719 0.367,-0.719Z" style="fill:rgb(184,184,184);fill-rule:nonzero;"/>
                    </g>
                    <g transform="matrix(55,0,0,55,368.277,2261.38)">
                        <path d="M0.367,-0.735C0.307,-0.735 0.253,-0.72 0.204,-0.691C0.155,-0.661 0.116,-0.617 0.087,-0.559C0.058,-0.502 0.044,-0.434 0.044,-0.354C0.044,-0.274 0.058,-0.205 0.086,-0.148C0.114,-0.09 0.153,-0.046 0.203,-0.016C0.252,0.014 0.308,0.029 0.37,0.029C0.42,0.029 0.464,0.021 0.501,0.006C0.539,-0.01 0.571,-0.03 0.597,-0.056C0.603,-0.062 0.603,-0.071 0.598,-0.077L0.547,-0.142C0.545,-0.146 0.541,-0.148 0.537,-0.148C0.532,-0.149 0.528,-0.147 0.525,-0.145C0.503,-0.127 0.481,-0.113 0.457,-0.103C0.433,-0.093 0.405,-0.088 0.372,-0.088C0.335,-0.088 0.302,-0.097 0.274,-0.115C0.245,-0.132 0.223,-0.16 0.207,-0.199C0.19,-0.239 0.182,-0.291 0.182,-0.354C0.182,-0.418 0.19,-0.47 0.208,-0.511C0.225,-0.55 0.247,-0.578 0.276,-0.595C0.304,-0.612 0.337,-0.621 0.373,-0.621C0.426,-0.621 0.471,-0.605 0.51,-0.572C0.517,-0.567 0.527,-0.568 0.533,-0.574L0.588,-0.639C0.59,-0.642 0.592,-0.646 0.591,-0.651C0.591,-0.655 0.589,-0.659 0.585,-0.662C0.554,-0.687 0.522,-0.705 0.488,-0.717C0.455,-0.729 0.414,-0.735 0.367,-0.735ZM0.552,-0.647C0.528,-0.665 0.503,-0.678 0.477,-0.687C0.447,-0.698 0.41,-0.704 0.367,-0.704C0.313,-0.704 0.265,-0.69 0.22,-0.663C0.176,-0.636 0.141,-0.597 0.115,-0.545C0.089,-0.492 0.076,-0.428 0.076,-0.354C0.076,-0.279 0.089,-0.215 0.115,-0.162C0.14,-0.11 0.175,-0.07 0.219,-0.043C0.263,-0.016 0.314,-0.003 0.37,-0.003C0.415,-0.003 0.455,-0.01 0.489,-0.024C0.518,-0.035 0.543,-0.05 0.564,-0.069L0.532,-0.11C0.512,-0.095 0.491,-0.083 0.469,-0.073C0.442,-0.062 0.41,-0.056 0.372,-0.056C0.328,-0.056 0.29,-0.067 0.257,-0.087C0.223,-0.108 0.197,-0.141 0.178,-0.186C0.159,-0.23 0.15,-0.286 0.15,-0.354C0.15,-0.423 0.16,-0.48 0.179,-0.524C0.199,-0.569 0.226,-0.602 0.259,-0.622C0.293,-0.643 0.331,-0.653 0.373,-0.653C0.428,-0.653 0.476,-0.637 0.518,-0.607L0.552,-0.647Z" style="fill:rgb(184,184,184);"/>
                    </g>
                    <g transform="matrix(55,0,0,55,413.123,2261.38)">
                        <path d="M0.496,-0.124C0.496,-0.103 0.5,-0.088 0.506,-0.078C0.513,-0.068 0.524,-0.06 0.539,-0.055L0.516,0.012C0.462,0.005 0.427,-0.02 0.411,-0.063C0.392,-0.038 0.368,-0.02 0.338,-0.007C0.309,0.006 0.276,0.013 0.241,0.013C0.205,0.013 0.173,0.006 0.147,-0.008C0.12,-0.022 0.1,-0.041 0.086,-0.067C0.072,-0.092 0.065,-0.121 0.065,-0.155C0.065,-0.211 0.087,-0.254 0.131,-0.284C0.174,-0.315 0.238,-0.33 0.32,-0.33L0.398,-0.33L0.398,-0.371C0.398,-0.407 0.388,-0.433 0.366,-0.449C0.345,-0.466 0.314,-0.474 0.273,-0.474C0.254,-0.474 0.232,-0.472 0.208,-0.467C0.183,-0.462 0.158,-0.455 0.131,-0.446L0.106,-0.518C0.169,-0.542 0.229,-0.553 0.288,-0.553C0.357,-0.553 0.408,-0.538 0.444,-0.507C0.479,-0.476 0.496,-0.432 0.496,-0.376L0.496,-0.124ZM0.268,-0.061C0.294,-0.061 0.318,-0.068 0.341,-0.081C0.364,-0.094 0.383,-0.112 0.398,-0.135L0.398,-0.266L0.327,-0.266C0.272,-0.266 0.232,-0.256 0.207,-0.238C0.182,-0.219 0.169,-0.192 0.169,-0.157C0.169,-0.126 0.178,-0.102 0.194,-0.085C0.211,-0.069 0.235,-0.061 0.268,-0.061Z" style="fill:rgb(184,184,184);fill-rule:nonzero;"/>
                    </g>
                    <g transform="matrix(55,0,0,55,413.123,2261.38)">
                        <path d="M0.383,-0.346L0.383,-0.371C0.383,-0.401 0.375,-0.423 0.357,-0.437C0.338,-0.451 0.31,-0.458 0.273,-0.458C0.255,-0.458 0.234,-0.456 0.211,-0.451C0.187,-0.447 0.162,-0.44 0.137,-0.431C0.133,-0.43 0.128,-0.43 0.124,-0.432C0.121,-0.434 0.118,-0.437 0.116,-0.441L0.091,-0.513C0.088,-0.521 0.092,-0.53 0.101,-0.533C0.165,-0.557 0.228,-0.569 0.288,-0.569C0.361,-0.569 0.416,-0.552 0.454,-0.519C0.493,-0.485 0.512,-0.437 0.512,-0.376L0.512,-0.124C0.512,-0.107 0.514,-0.095 0.52,-0.086C0.525,-0.079 0.533,-0.074 0.544,-0.071C0.548,-0.069 0.551,-0.066 0.553,-0.063C0.555,-0.059 0.555,-0.054 0.554,-0.05L0.531,0.017C0.529,0.025 0.521,0.029 0.514,0.028C0.464,0.022 0.428,0.001 0.407,-0.034C0.39,-0.017 0.369,-0.003 0.345,0.008C0.313,0.022 0.278,0.029 0.241,0.029C0.202,0.029 0.168,0.021 0.14,0.006C0.11,-0.009 0.088,-0.031 0.072,-0.059C0.057,-0.086 0.049,-0.118 0.049,-0.155C0.049,-0.217 0.073,-0.264 0.121,-0.297C0.168,-0.329 0.234,-0.346 0.32,-0.346L0.383,-0.346ZM0.519,-0.046C0.508,-0.052 0.499,-0.06 0.493,-0.069C0.485,-0.081 0.48,-0.099 0.48,-0.124L0.48,-0.376C0.48,-0.427 0.465,-0.466 0.433,-0.495C0.4,-0.524 0.352,-0.537 0.288,-0.537C0.236,-0.537 0.182,-0.528 0.126,-0.508L0.141,-0.466C0.163,-0.473 0.184,-0.479 0.205,-0.483C0.23,-0.487 0.253,-0.49 0.273,-0.49C0.318,-0.49 0.352,-0.48 0.376,-0.462C0.401,-0.443 0.414,-0.413 0.414,-0.371L0.414,-0.33C0.414,-0.321 0.407,-0.314 0.398,-0.314L0.32,-0.314C0.242,-0.314 0.181,-0.3 0.14,-0.271C0.1,-0.244 0.081,-0.205 0.081,-0.155C0.081,-0.124 0.087,-0.098 0.1,-0.074C0.112,-0.052 0.131,-0.034 0.154,-0.022C0.179,-0.009 0.207,-0.003 0.241,-0.003C0.274,-0.003 0.304,-0.009 0.332,-0.021C0.359,-0.033 0.381,-0.05 0.399,-0.073C0.402,-0.077 0.408,-0.08 0.414,-0.079C0.419,-0.078 0.424,-0.074 0.426,-0.069C0.439,-0.034 0.465,-0.014 0.505,-0.006L0.519,-0.046ZM0.268,-0.045C0.296,-0.045 0.323,-0.052 0.349,-0.067C0.374,-0.081 0.395,-0.101 0.412,-0.126C0.414,-0.129 0.414,-0.132 0.414,-0.135L0.414,-0.266C0.414,-0.274 0.407,-0.282 0.398,-0.282L0.327,-0.282C0.267,-0.282 0.224,-0.271 0.197,-0.25C0.168,-0.229 0.153,-0.198 0.153,-0.157C0.153,-0.12 0.164,-0.093 0.183,-0.074C0.202,-0.055 0.23,-0.045 0.268,-0.045ZM0.383,-0.25L0.327,-0.25C0.276,-0.25 0.239,-0.242 0.216,-0.225C0.195,-0.209 0.185,-0.187 0.185,-0.157C0.185,-0.131 0.191,-0.11 0.205,-0.097C0.219,-0.083 0.24,-0.077 0.268,-0.077C0.291,-0.077 0.312,-0.083 0.333,-0.094C0.353,-0.105 0.369,-0.121 0.383,-0.14L0.383,-0.25Z" style="fill:rgb(184,184,184);"/>
                    </g>
                    <g transform="matrix(55,0,0,55,457.969,2261.38)">
                        <path d="M0.349,-0.553C0.418,-0.553 0.468,-0.529 0.499,-0.48C0.53,-0.431 0.545,-0.361 0.545,-0.271C0.545,-0.215 0.537,-0.166 0.522,-0.123C0.506,-0.081 0.483,-0.047 0.452,-0.023C0.42,0.001 0.382,0.013 0.337,0.013C0.279,0.013 0.232,-0.008 0.196,-0.049L0.196,0.207L0.098,0.219L0.098,-0.541L0.183,-0.541L0.19,-0.468C0.21,-0.495 0.234,-0.517 0.261,-0.531C0.288,-0.546 0.318,-0.553 0.349,-0.553ZM0.324,-0.476C0.298,-0.476 0.274,-0.468 0.253,-0.453C0.231,-0.437 0.212,-0.417 0.196,-0.393L0.196,-0.131C0.21,-0.111 0.227,-0.095 0.247,-0.084C0.267,-0.072 0.289,-0.067 0.313,-0.067C0.356,-0.067 0.388,-0.083 0.409,-0.117C0.43,-0.15 0.441,-0.201 0.441,-0.271C0.441,-0.341 0.431,-0.393 0.412,-0.426C0.393,-0.459 0.364,-0.476 0.324,-0.476Z" style="fill:rgb(184,184,184);fill-rule:nonzero;"/>
                    </g>
                    <g transform="matrix(55,0,0,55,457.969,2261.38)">
                        <path d="M0.202,-0.507C0.218,-0.522 0.235,-0.535 0.253,-0.545C0.283,-0.561 0.315,-0.569 0.349,-0.569C0.424,-0.569 0.478,-0.542 0.512,-0.488C0.544,-0.437 0.561,-0.365 0.561,-0.271C0.561,-0.213 0.553,-0.162 0.537,-0.118C0.52,-0.072 0.495,-0.037 0.461,-0.011C0.427,0.015 0.386,0.029 0.337,0.029C0.288,0.029 0.247,0.015 0.212,-0.011L0.212,0.207C0.212,0.215 0.206,0.222 0.198,0.223L0.1,0.235C0.095,0.235 0.091,0.234 0.087,0.231C0.084,0.228 0.082,0.224 0.082,0.219L0.082,-0.541C0.082,-0.549 0.089,-0.556 0.098,-0.556L0.183,-0.556C0.191,-0.556 0.198,-0.55 0.198,-0.542L0.202,-0.507ZM0.18,0.193L0.18,-0.049C0.18,-0.055 0.185,-0.061 0.191,-0.064C0.197,-0.066 0.204,-0.064 0.208,-0.059C0.241,-0.022 0.284,-0.003 0.337,-0.003C0.378,-0.003 0.413,-0.014 0.442,-0.036C0.471,-0.058 0.492,-0.089 0.507,-0.129C0.522,-0.17 0.529,-0.217 0.529,-0.271C0.529,-0.357 0.515,-0.424 0.485,-0.471C0.457,-0.516 0.412,-0.537 0.349,-0.537C0.32,-0.537 0.294,-0.531 0.269,-0.517C0.243,-0.504 0.221,-0.484 0.203,-0.458C0.199,-0.453 0.192,-0.451 0.186,-0.452C0.179,-0.454 0.175,-0.46 0.174,-0.466L0.168,-0.525L0.114,-0.525L0.114,0.201L0.18,0.193ZM0.324,-0.492C0.295,-0.492 0.268,-0.483 0.243,-0.465C0.22,-0.449 0.2,-0.428 0.183,-0.402C0.181,-0.399 0.18,-0.396 0.18,-0.393L0.18,-0.131C0.18,-0.128 0.181,-0.125 0.183,-0.122C0.198,-0.1 0.217,-0.082 0.239,-0.07C0.261,-0.057 0.286,-0.051 0.313,-0.051C0.362,-0.051 0.398,-0.07 0.422,-0.108C0.445,-0.143 0.457,-0.197 0.457,-0.271C0.457,-0.344 0.446,-0.399 0.426,-0.434C0.404,-0.472 0.37,-0.492 0.324,-0.492ZM0.212,-0.136C0.224,-0.12 0.238,-0.107 0.255,-0.097C0.272,-0.088 0.292,-0.083 0.313,-0.083C0.35,-0.083 0.377,-0.097 0.396,-0.125C0.416,-0.157 0.425,-0.205 0.425,-0.271C0.425,-0.337 0.417,-0.386 0.398,-0.418C0.382,-0.446 0.358,-0.46 0.324,-0.46C0.302,-0.46 0.281,-0.453 0.262,-0.44C0.243,-0.426 0.227,-0.409 0.212,-0.388L0.212,-0.136Z" style="fill:rgb(184,184,184);"/>
                    </g>
                    <g transform="matrix(55,0,0,55,531.867,2261.38)">
                        <path d="M0.053,-0.794L0.004,-0.693L0.529,-0.368L0.529,-0.275L0.138,-0.031L0.087,-0.102L0.445,-0.321L-0.034,-0.614L-0.384,0.107L-0.463,0.072L-0.025,-0.831L0.053,-0.794Z" style="fill:rgb(184,184,184);fill-rule:nonzero;"/>
                    </g>
                    <g transform="matrix(55,0,0,55,531.867,2261.38)">
                        <path d="M-0.028,-0.591L-0.37,0.114C-0.374,0.122 -0.383,0.125 -0.391,0.122L-0.47,0.086C-0.474,0.085 -0.477,0.081 -0.478,0.077C-0.48,0.073 -0.479,0.069 -0.477,0.065L-0.039,-0.838C-0.036,-0.846 -0.026,-0.849 -0.018,-0.846L0.06,-0.808C0.064,-0.806 0.066,-0.803 0.068,-0.799C0.069,-0.795 0.069,-0.791 0.067,-0.787L0.025,-0.699L0.538,-0.382C0.542,-0.379 0.545,-0.374 0.545,-0.368L0.545,-0.275C0.545,-0.27 0.542,-0.265 0.538,-0.262L0.146,-0.017C0.139,-0.013 0.13,-0.015 0.125,-0.022L0.074,-0.093C0.072,-0.096 0.071,-0.101 0.072,-0.105C0.072,-0.11 0.075,-0.113 0.079,-0.116L0.414,-0.321L-0.028,-0.591ZM0.032,-0.786L-0.018,-0.81L-0.442,0.064L-0.392,0.086L-0.049,-0.621C-0.047,-0.625 -0.043,-0.628 -0.039,-0.629C-0.035,-0.63 -0.03,-0.63 -0.026,-0.627L0.453,-0.335C0.458,-0.332 0.461,-0.327 0.461,-0.321C0.461,-0.315 0.458,-0.31 0.453,-0.307L0.11,-0.097L0.142,-0.052L0.513,-0.284L0.513,-0.359L-0.004,-0.679C-0.011,-0.684 -0.014,-0.692 -0.01,-0.7L0.032,-0.786Z" style="fill:rgb(184,184,184);"/>
                    </g>
                </g>
                <g transform="matrix(1.02861,0,0,1.04451,125.775,-143.967)">
                    <g transform="matrix(107.638,0,0,106,248.856,2299.19)">
                        <path d="M0.077,0.289L0.077,-0.711L0.279,-0.711C0.344,-0.711 0.391,-0.696 0.423,-0.663C0.464,-0.619 0.475,-0.534 0.475,-0.471C0.475,-0.438 0.468,-0.364 0.45,-0.32C0.438,-0.292 0.418,-0.262 0.39,-0.248C0.422,-0.238 0.446,-0.214 0.46,-0.181C0.475,-0.146 0.486,-0.071 0.486,0.005C0.486,0.069 0.482,0.135 0.443,0.192C0.412,0.237 0.34,0.289 0.186,0.289L0.077,0.289ZM0.166,-0.205L0.166,0.213C0.166,0.213 0.139,0.213 0.188,0.213C0.266,0.213 0.348,0.184 0.375,0.141C0.401,0.101 0.402,0.078 0.402,0.006C0.403,-0.066 0.4,-0.115 0.384,-0.153C0.369,-0.189 0.336,-0.205 0.29,-0.205L0.166,-0.205ZM0.166,-0.28L0.281,-0.28C0.312,-0.28 0.337,-0.291 0.356,-0.312C0.383,-0.342 0.391,-0.376 0.391,-0.471C0.391,-0.546 0.388,-0.577 0.358,-0.608C0.341,-0.625 0.315,-0.634 0.279,-0.634L0.166,-0.634L0.166,-0.28Z" style="fill:white;fill-rule:nonzero;"/>
                    </g>
                    <g transform="matrix(107.638,0,0,106,248.856,2299.19)">
                        <path d="M0.422,-0.251C0.445,-0.237 0.463,-0.215 0.475,-0.187C0.49,-0.151 0.502,-0.073 0.502,0.005C0.502,0.072 0.497,0.141 0.456,0.201C0.423,0.249 0.349,0.305 0.186,0.305L0.077,0.305C0.068,0.305 0.061,0.298 0.061,0.289L0.061,-0.711C0.061,-0.72 0.068,-0.727 0.077,-0.727L0.279,-0.727C0.349,-0.727 0.4,-0.71 0.434,-0.674C0.478,-0.627 0.49,-0.538 0.49,-0.471C0.49,-0.437 0.484,-0.36 0.464,-0.314C0.455,-0.291 0.441,-0.268 0.422,-0.251ZM0.093,0.274L0.186,0.274C0.332,0.274 0.401,0.226 0.43,0.183C0.467,0.129 0.471,0.066 0.471,0.005C0.471,-0.068 0.46,-0.141 0.446,-0.175C0.434,-0.203 0.413,-0.224 0.385,-0.233C0.379,-0.235 0.375,-0.24 0.374,-0.247C0.373,-0.253 0.377,-0.259 0.383,-0.262C0.408,-0.274 0.425,-0.301 0.435,-0.326C0.453,-0.368 0.459,-0.439 0.459,-0.471C0.459,-0.531 0.45,-0.611 0.411,-0.652C0.383,-0.683 0.339,-0.695 0.279,-0.695L0.093,-0.695L0.093,0.274ZM0.15,0.197L0.15,-0.205C0.15,-0.214 0.157,-0.221 0.166,-0.221C0.166,-0.221 0.29,-0.221 0.29,-0.221C0.343,-0.221 0.381,-0.201 0.399,-0.159C0.416,-0.12 0.419,-0.069 0.418,0.006C0.417,0.083 0.416,0.107 0.389,0.15C0.377,0.169 0.355,0.186 0.327,0.199C0.288,0.218 0.237,0.229 0.188,0.229L0.159,0.229C0.112,0.229 0.095,0.221 0.098,0.213C0.095,0.205 0.11,0.198 0.15,0.197ZM0.182,0.197L0.188,0.197C0.233,0.197 0.278,0.187 0.313,0.17C0.335,0.16 0.353,0.148 0.362,0.133C0.386,0.095 0.386,0.073 0.387,0.006C0.387,-0.064 0.385,-0.111 0.37,-0.147C0.357,-0.177 0.329,-0.189 0.29,-0.189L0.182,-0.189L0.182,0.197ZM0.15,-0.28C0.15,-0.272 0.157,-0.265 0.166,-0.265L0.281,-0.265C0.317,-0.265 0.345,-0.277 0.367,-0.301C0.397,-0.333 0.407,-0.369 0.407,-0.471C0.407,-0.552 0.402,-0.586 0.37,-0.619C0.35,-0.639 0.32,-0.65 0.279,-0.65L0.166,-0.65C0.157,-0.65 0.15,-0.643 0.15,-0.634L0.15,-0.28ZM0.182,-0.296L0.281,-0.296C0.307,-0.296 0.328,-0.305 0.344,-0.322C0.37,-0.35 0.375,-0.382 0.375,-0.471C0.375,-0.54 0.374,-0.569 0.347,-0.597C0.332,-0.612 0.31,-0.618 0.279,-0.618L0.182,-0.618L0.182,-0.296Z" style="fill:white;"/>
                    </g>
                    <g transform="matrix(107.638,0,0,106,308.084,2299.19)">
                        <path d="M0.398,-0.168L0.184,-0.166L0.103,0.151L0.012,0.174L0.243,-0.711L0.329,-0.711L0.56,0.066L0.472,0.08L0.398,-0.168ZM0.207,-0.243L0.376,-0.244L0.288,-0.586L0.207,-0.243Z" style="fill:white;fill-rule:nonzero;"/>
                    </g>
                    <g transform="matrix(107.638,0,0,106,308.084,2299.19)">
                        <path d="M0.196,-0.15L0.118,0.155C0.116,0.16 0.112,0.165 0.107,0.166L0.016,0.19C0.01,0.191 0.004,0.19 0,0.186C-0.004,0.182 -0.005,0.176 -0.004,0.17L0.228,-0.715C0.23,-0.722 0.236,-0.727 0.243,-0.727L0.329,-0.727C0.336,-0.727 0.342,-0.722 0.344,-0.715L0.575,0.062C0.576,0.066 0.575,0.071 0.573,0.075C0.57,0.079 0.566,0.081 0.562,0.082L0.474,0.096C0.467,0.097 0.459,0.092 0.457,0.085L0.386,-0.152L0.196,-0.15ZM0.483,0.062L0.539,0.053L0.317,-0.695L0.256,-0.695L0.034,0.152L0.09,0.138L0.169,-0.17C0.171,-0.177 0.177,-0.182 0.184,-0.182L0.398,-0.183C0.405,-0.184 0.411,-0.179 0.413,-0.172L0.483,0.062ZM0.191,-0.247C0.19,-0.242 0.191,-0.237 0.194,-0.233C0.198,-0.23 0.202,-0.227 0.207,-0.227L0.376,-0.228C0.381,-0.228 0.386,-0.231 0.389,-0.235C0.391,-0.238 0.393,-0.243 0.391,-0.248L0.303,-0.59C0.302,-0.597 0.295,-0.602 0.288,-0.602C0.281,-0.602 0.274,-0.597 0.273,-0.59L0.191,-0.247ZM0.227,-0.259L0.356,-0.26L0.289,-0.52L0.227,-0.259Z" style="fill:white;"/>
                    </g>
                    <g transform="matrix(107.638,0,0,106,369.65,2299.19)">
                        <path d="M0.292,-0.288L0.167,-0.288L0.167,0.037L0.077,0.048L0.077,-0.711L0.276,-0.711C0.346,-0.711 0.398,-0.693 0.434,-0.656C0.47,-0.62 0.488,-0.567 0.488,-0.497C0.488,-0.453 0.478,-0.415 0.459,-0.382C0.439,-0.349 0.412,-0.325 0.376,-0.308L0.521,0.008L0.489,0.01L0.424,0.014L0.292,-0.288ZM0.167,-0.364L0.275,-0.364C0.312,-0.364 0.342,-0.376 0.365,-0.4C0.387,-0.425 0.398,-0.457 0.398,-0.497C0.398,-0.589 0.357,-0.634 0.274,-0.634L0.167,-0.634L0.167,-0.364Z" style="fill:white;fill-rule:nonzero;"/>
                    </g>
                    <g transform="matrix(107.638,0,0,106,369.65,2299.19)">
                        <path d="M0.182,-0.272L0.182,0.037C0.182,0.045 0.176,0.052 0.168,0.053L0.078,0.063C0.074,0.064 0.069,0.062 0.066,0.059C0.063,0.056 0.061,0.052 0.061,0.048L0.061,-0.711C0.061,-0.72 0.068,-0.727 0.077,-0.727L0.276,-0.727C0.351,-0.727 0.407,-0.707 0.445,-0.668C0.484,-0.629 0.504,-0.572 0.504,-0.497C0.504,-0.45 0.493,-0.409 0.472,-0.374C0.454,-0.343 0.429,-0.319 0.397,-0.301L0.535,0.002C0.537,0.006 0.537,0.012 0.534,0.017C0.531,0.021 0.527,0.024 0.521,0.024C0.521,0.024 0.49,0.026 0.49,0.026L0.425,0.03C0.419,0.03 0.413,0.027 0.41,0.021L0.281,-0.272L0.182,-0.272ZM0.093,-0.695L0.093,0.03L0.151,0.023L0.151,-0.288C0.151,-0.296 0.158,-0.303 0.167,-0.303L0.292,-0.303C0.298,-0.303 0.303,-0.3 0.306,-0.294L0.434,-0.002L0.488,-0.006L0.497,-0.006L0.362,-0.302C0.358,-0.309 0.362,-0.319 0.37,-0.322C0.402,-0.338 0.427,-0.36 0.445,-0.39C0.463,-0.421 0.472,-0.456 0.472,-0.497C0.472,-0.562 0.456,-0.612 0.423,-0.645C0.39,-0.679 0.34,-0.695 0.276,-0.695L0.093,-0.695ZM0.151,-0.364C0.151,-0.356 0.158,-0.348 0.167,-0.348L0.275,-0.348C0.317,-0.348 0.351,-0.362 0.376,-0.39C0.401,-0.417 0.414,-0.452 0.414,-0.497C0.414,-0.548 0.402,-0.585 0.379,-0.611C0.355,-0.636 0.321,-0.65 0.274,-0.65L0.167,-0.65C0.158,-0.65 0.151,-0.643 0.151,-0.634L0.151,-0.364ZM0.182,-0.38L0.275,-0.38C0.307,-0.38 0.333,-0.39 0.353,-0.411C0.373,-0.433 0.382,-0.461 0.382,-0.497C0.382,-0.538 0.374,-0.569 0.355,-0.589C0.337,-0.609 0.31,-0.618 0.274,-0.618L0.182,-0.618L0.182,-0.38Z" style="fill:white;"/>
                    </g>
                    <g transform="matrix(107.638,0,0,106,426.329,2299.19)">
                        <path d="M0.077,-0L0.077,-0.711L0.279,-0.711C0.344,-0.711 0.393,-0.695 0.426,-0.664C0.458,-0.632 0.475,-0.585 0.475,-0.521C0.475,-0.488 0.466,-0.459 0.45,-0.434C0.433,-0.408 0.411,-0.389 0.382,-0.375C0.415,-0.365 0.441,-0.345 0.46,-0.314C0.479,-0.284 0.488,-0.248 0.488,-0.205C0.488,-0.141 0.471,-0.091 0.436,-0.055C0.401,-0.018 0.351,-0 0.286,-0L0.077,-0ZM0.166,-0.333L0.166,-0.077L0.288,-0.077C0.322,-0.077 0.349,-0.088 0.369,-0.11C0.389,-0.132 0.398,-0.164 0.398,-0.204C0.398,-0.29 0.362,-0.333 0.29,-0.333L0.166,-0.333ZM0.166,-0.408L0.281,-0.408C0.312,-0.408 0.337,-0.418 0.356,-0.439C0.375,-0.46 0.384,-0.488 0.384,-0.522C0.384,-0.561 0.376,-0.59 0.358,-0.608C0.341,-0.625 0.315,-0.634 0.279,-0.634L0.166,-0.634L0.166,-0.408Z" style="fill:white;fill-rule:nonzero;"/>
                    </g>
                    <g transform="matrix(107.638,0,0,106,426.329,2299.19)">
                        <path d="M0.417,-0.377C0.44,-0.365 0.458,-0.347 0.473,-0.323C0.494,-0.29 0.504,-0.251 0.504,-0.205C0.504,-0.137 0.485,-0.083 0.447,-0.044C0.41,-0.004 0.356,0.016 0.286,0.016L0.077,0.016C0.068,0.016 0.061,0.009 0.061,0L0.061,-0.711C0.061,-0.72 0.068,-0.727 0.077,-0.727L0.279,-0.727C0.349,-0.727 0.401,-0.709 0.437,-0.675C0.472,-0.641 0.49,-0.59 0.49,-0.521C0.49,-0.485 0.481,-0.453 0.463,-0.425C0.451,-0.406 0.435,-0.39 0.417,-0.377ZM0.093,-0.016L0.286,-0.016C0.346,-0.016 0.392,-0.032 0.424,-0.066C0.457,-0.099 0.472,-0.146 0.472,-0.205C0.472,-0.244 0.464,-0.278 0.446,-0.306C0.429,-0.333 0.407,-0.351 0.378,-0.359C0.372,-0.361 0.367,-0.367 0.367,-0.373C0.366,-0.38 0.369,-0.386 0.375,-0.389C0.401,-0.401 0.421,-0.419 0.436,-0.442C0.451,-0.465 0.459,-0.492 0.459,-0.521C0.459,-0.579 0.445,-0.623 0.415,-0.652C0.384,-0.681 0.339,-0.695 0.279,-0.695L0.093,-0.695L0.093,-0.016ZM0.166,-0.348C0.157,-0.348 0.15,-0.341 0.15,-0.333L0.15,-0.077C0.15,-0.068 0.157,-0.061 0.166,-0.061L0.288,-0.061C0.327,-0.061 0.358,-0.074 0.38,-0.1C0.403,-0.124 0.414,-0.159 0.414,-0.204C0.414,-0.252 0.403,-0.287 0.383,-0.311C0.363,-0.335 0.332,-0.348 0.29,-0.348C0.29,-0.348 0.166,-0.348 0.166,-0.348ZM0.182,-0.093L0.288,-0.093C0.317,-0.093 0.34,-0.102 0.357,-0.121C0.374,-0.14 0.383,-0.168 0.383,-0.204C0.383,-0.242 0.375,-0.271 0.359,-0.29C0.344,-0.308 0.321,-0.317 0.29,-0.317L0.182,-0.317L0.182,-0.093ZM0.15,-0.408C0.15,-0.399 0.157,-0.392 0.166,-0.392L0.281,-0.392C0.317,-0.392 0.345,-0.404 0.367,-0.428C0.389,-0.452 0.4,-0.483 0.4,-0.522C0.4,-0.567 0.389,-0.599 0.37,-0.619C0.35,-0.639 0.32,-0.65 0.279,-0.65L0.166,-0.65C0.157,-0.65 0.15,-0.643 0.15,-0.634L0.15,-0.408ZM0.182,-0.424L0.281,-0.424C0.307,-0.424 0.328,-0.432 0.344,-0.45C0.361,-0.468 0.368,-0.492 0.368,-0.522C0.368,-0.556 0.362,-0.581 0.347,-0.597C0.332,-0.612 0.31,-0.618 0.279,-0.618L0.182,-0.618L0.182,-0.424Z" style="fill:white;"/>
                    </g>
                    <g transform="matrix(107.638,0,0,106,483.613,2299.19)">
                        <path d="M0.539,-0.279C0.539,-0.182 0.518,-0.108 0.477,-0.055C0.436,-0.003 0.377,0.023 0.301,0.023C0.228,0.023 0.17,-0.002 0.127,-0.053C0.085,-0.104 0.063,-0.176 0.061,-0.269L0.061,-0.417C0.061,-0.512 0.082,-0.586 0.124,-0.64C0.166,-0.694 0.225,-0.721 0.3,-0.721C0.375,-0.721 0.433,-0.695 0.475,-0.643C0.517,-0.592 0.538,-0.518 0.539,-0.422L0.539,-0.279ZM0.45,-0.417C0.45,-0.493 0.437,-0.549 0.413,-0.585C0.388,-0.622 0.351,-0.64 0.3,-0.64C0.251,-0.64 0.213,-0.622 0.188,-0.584C0.163,-0.547 0.15,-0.493 0.15,-0.42L0.15,-0.279C0.15,-0.207 0.163,-0.151 0.188,-0.113C0.213,-0.075 0.251,-0.056 0.301,-0.056C0.351,-0.056 0.388,-0.074 0.412,-0.109C0.436,-0.144 0.449,-0.198 0.45,-0.271L0.45,-0.417Z" style="fill:white;fill-rule:nonzero;"/>
                    </g>
                    <g transform="matrix(107.638,0,0,106,483.613,2299.19)">
                        <path d="M0.555,-0.279L0.555,-0.423C0.554,-0.523 0.531,-0.599 0.487,-0.653C0.442,-0.709 0.38,-0.737 0.3,-0.737C0.219,-0.737 0.157,-0.707 0.112,-0.65C0.068,-0.593 0.045,-0.516 0.045,-0.417L0.045,-0.269C0.047,-0.171 0.071,-0.096 0.115,-0.043C0.161,0.012 0.222,0.039 0.301,0.039C0.382,0.039 0.445,0.011 0.489,-0.045C0.533,-0.1 0.555,-0.178 0.555,-0.279ZM0.523,-0.279C0.523,-0.187 0.504,-0.115 0.465,-0.065C0.426,-0.016 0.371,0.008 0.301,0.008C0.233,0.008 0.179,-0.016 0.139,-0.063C0.099,-0.112 0.078,-0.181 0.077,-0.269C0.077,-0.269 0.077,-0.417 0.077,-0.417C0.077,-0.507 0.096,-0.579 0.137,-0.63C0.175,-0.68 0.23,-0.705 0.3,-0.705C0.369,-0.705 0.424,-0.681 0.463,-0.633C0.502,-0.584 0.522,-0.514 0.523,-0.422C0.523,-0.422 0.523,-0.279 0.523,-0.279ZM0.466,-0.417C0.466,-0.497 0.452,-0.555 0.426,-0.594C0.399,-0.635 0.357,-0.656 0.3,-0.656C0.245,-0.656 0.203,-0.635 0.175,-0.593C0.149,-0.554 0.134,-0.497 0.134,-0.42C0.134,-0.42 0.134,-0.279 0.134,-0.279C0.134,-0.203 0.148,-0.145 0.175,-0.105C0.203,-0.062 0.245,-0.04 0.301,-0.04C0.357,-0.04 0.398,-0.061 0.425,-0.1C0.451,-0.137 0.465,-0.194 0.466,-0.27C0.466,-0.271 0.466,-0.417 0.466,-0.417ZM0.434,-0.417L0.434,-0.271C0.433,-0.202 0.422,-0.151 0.399,-0.118C0.378,-0.087 0.345,-0.072 0.301,-0.072C0.257,-0.072 0.223,-0.088 0.201,-0.122C0.177,-0.158 0.166,-0.211 0.166,-0.279C0.166,-0.279 0.166,-0.42 0.166,-0.42C0.166,-0.489 0.177,-0.54 0.201,-0.576C0.224,-0.608 0.256,-0.624 0.3,-0.624C0.345,-0.624 0.378,-0.609 0.4,-0.576C0.423,-0.542 0.434,-0.489 0.434,-0.417Z" style="fill:white;"/>
                    </g>
                    <g transform="matrix(107.638,0,0,106,547.807,2299.19)">
                        <path d="M0.387,-0.107C0.387,-0.143 0.378,-0.188 0.358,-0.207C0.339,-0.226 0.305,-0.253 0.254,-0.271C0.204,-0.289 0.166,-0.308 0.139,-0.328C0.113,-0.347 0.093,-0.379 0.08,-0.404C0.067,-0.429 0.06,-0.476 0.06,-0.509C0.06,-0.565 0.079,-0.63 0.116,-0.666C0.154,-0.702 0.203,-0.721 0.264,-0.721C0.306,-0.721 0.343,-0.711 0.375,-0.693C0.408,-0.674 0.433,-0.648 0.451,-0.615C0.468,-0.582 0.477,-0.537 0.477,-0.497L0.387,-0.497C0.387,-0.541 0.377,-0.584 0.355,-0.608C0.334,-0.632 0.304,-0.644 0.264,-0.644C0.228,-0.644 0.2,-0.634 0.18,-0.614C0.16,-0.593 0.15,-0.547 0.15,-0.511C0.15,-0.481 0.161,-0.437 0.183,-0.417C0.204,-0.397 0.237,-0.37 0.282,-0.354C0.352,-0.331 0.402,-0.293 0.432,-0.259C0.462,-0.225 0.478,-0.163 0.478,-0.108C0.478,-0.051 0.459,0.013 0.421,0.048C0.384,0.083 0.333,0.1 0.269,0.1C0.227,0.1 0.189,0.091 0.154,0.073C0.119,0.055 0.092,0.03 0.072,-0.003C0.052,-0.036 0.042,-0.11 0.042,-0.152L0.131,-0.152C0.131,-0.108 0.144,-0.038 0.168,-0.013C0.193,0.011 0.226,0.023 0.269,0.023C0.308,0.023 0.338,0.013 0.357,-0.007C0.377,-0.027 0.387,-0.073 0.387,-0.107Z" style="fill:white;fill-rule:nonzero;"/>
                    </g>
                    <g transform="matrix(107.638,0,0,106,547.807,2299.19)">
                        <path d="M0.371,-0.107C0.371,-0.077 0.364,-0.036 0.346,-0.018C0.329,-0 0.303,0.008 0.269,0.008C0.231,0.008 0.201,-0.003 0.179,-0.024C0.171,-0.033 0.165,-0.048 0.16,-0.064C0.151,-0.093 0.147,-0.127 0.147,-0.152C0.147,-0.161 0.14,-0.168 0.131,-0.168L0.042,-0.168C0.033,-0.168 0.026,-0.161 0.026,-0.152C0.026,-0.107 0.037,-0.029 0.058,0.005C0.08,0.04 0.109,0.068 0.147,0.087C0.184,0.106 0.225,0.116 0.269,0.116C0.338,0.116 0.392,0.097 0.432,0.06C0.472,0.022 0.493,-0.046 0.493,-0.108C0.493,-0.167 0.476,-0.234 0.444,-0.27C0.413,-0.305 0.36,-0.345 0.287,-0.369C0.245,-0.384 0.214,-0.41 0.193,-0.429C0.175,-0.446 0.166,-0.484 0.166,-0.511C0.166,-0.543 0.174,-0.585 0.191,-0.603C0.209,-0.62 0.233,-0.628 0.264,-0.628C0.299,-0.628 0.325,-0.618 0.344,-0.597C0.363,-0.576 0.371,-0.537 0.371,-0.497C0.371,-0.488 0.378,-0.481 0.387,-0.481L0.477,-0.481C0.486,-0.481 0.493,-0.488 0.493,-0.497C0.493,-0.539 0.483,-0.587 0.465,-0.623C0.446,-0.658 0.419,-0.686 0.383,-0.707C0.348,-0.726 0.309,-0.737 0.264,-0.737C0.199,-0.737 0.146,-0.717 0.105,-0.677C0.065,-0.638 0.044,-0.569 0.044,-0.509C0.044,-0.474 0.052,-0.424 0.066,-0.397C0.08,-0.37 0.101,-0.336 0.13,-0.315C0.157,-0.295 0.197,-0.275 0.249,-0.256C0.296,-0.239 0.329,-0.214 0.347,-0.196C0.353,-0.19 0.358,-0.18 0.362,-0.169C0.368,-0.15 0.371,-0.127 0.371,-0.107ZM0.461,-0.513C0.459,-0.546 0.451,-0.581 0.437,-0.608C0.421,-0.638 0.398,-0.662 0.368,-0.679C0.337,-0.696 0.303,-0.705 0.264,-0.705C0.208,-0.705 0.162,-0.688 0.127,-0.655C0.093,-0.621 0.076,-0.561 0.076,-0.509C0.076,-0.479 0.082,-0.435 0.094,-0.411C0.106,-0.388 0.124,-0.359 0.149,-0.34C0.174,-0.321 0.211,-0.303 0.26,-0.286C0.313,-0.267 0.349,-0.238 0.37,-0.218C0.391,-0.197 0.403,-0.147 0.403,-0.107C0.403,-0.069 0.391,-0.018 0.369,0.004C0.346,0.027 0.313,0.039 0.269,0.039C0.221,0.039 0.184,0.025 0.157,-0.002C0.146,-0.013 0.136,-0.033 0.129,-0.055C0.122,-0.081 0.117,-0.111 0.116,-0.136L0.058,-0.136C0.06,-0.095 0.068,-0.039 0.085,-0.011C0.104,0.019 0.129,0.042 0.161,0.059C0.194,0.076 0.23,0.084 0.269,0.084C0.328,0.084 0.376,0.069 0.411,0.036C0.445,0.004 0.462,-0.055 0.462,-0.108C0.462,-0.159 0.448,-0.217 0.421,-0.249C0.392,-0.281 0.344,-0.317 0.277,-0.339C0.23,-0.356 0.194,-0.384 0.172,-0.406C0.148,-0.428 0.135,-0.477 0.135,-0.511C0.135,-0.551 0.147,-0.602 0.169,-0.625C0.191,-0.648 0.223,-0.66 0.264,-0.66C0.309,-0.66 0.343,-0.646 0.367,-0.618C0.388,-0.595 0.4,-0.555 0.403,-0.513L0.461,-0.513Z" style="fill:white;"/>
                    </g>
                    <g transform="matrix(113.319,0,0,106,599.922,2299.19)">
                        <path d="M0.379,-0.148L0.186,-0.148L0.11,0.189L0.033,0.171L0.244,-0.695L0.339,-0.694L0.558,0.317L0.465,0.289L0.379,-0.148ZM0.203,-0.225L0.364,-0.224L0.288,-0.586L0.203,-0.225Z" style="fill:white;fill-rule:nonzero;"/>
                    </g>
                    <g transform="matrix(113.319,0,0,106,599.922,2299.19)">
                        <path d="M0.198,-0.132L0.125,0.193C0.123,0.201 0.115,0.206 0.107,0.204L0.029,0.186C0.025,0.185 0.022,0.183 0.02,0.179C0.018,0.175 0.017,0.171 0.018,0.167L0.23,-0.699C0.231,-0.706 0.237,-0.711 0.244,-0.711L0.339,-0.71C0.346,-0.71 0.352,-0.705 0.354,-0.697L0.573,0.314C0.574,0.319 0.573,0.325 0.569,0.329C0.565,0.333 0.559,0.334 0.554,0.333L0.461,0.304C0.456,0.303 0.452,0.298 0.451,0.292L0.367,-0.132L0.198,-0.132ZM0.478,0.277L0.538,0.295L0.327,-0.678L0.256,-0.679L0.051,0.159L0.099,0.17L0.171,-0.152C0.173,-0.159 0.179,-0.164 0.186,-0.164L0.379,-0.164C0.386,-0.164 0.393,-0.158 0.394,-0.151L0.478,0.277ZM0.188,-0.229C0.187,-0.224 0.188,-0.219 0.191,-0.215C0.194,-0.211 0.198,-0.209 0.203,-0.209L0.364,-0.208C0.368,-0.208 0.373,-0.21 0.375,-0.214C0.378,-0.218 0.379,-0.223 0.378,-0.228L0.303,-0.589C0.301,-0.597 0.295,-0.602 0.288,-0.602C0.281,-0.602 0.275,-0.597 0.273,-0.59L0.188,-0.229ZM0.222,-0.241L0.345,-0.24L0.287,-0.517L0.222,-0.241Z" style="fill:white;"/>
                    </g>
                </g>
            </g>
        </g>
    </g>
</svg>
